<svg width="9" height="9" viewBox="0 0 12 11" fill="none" xmlns="http://www.w3.org/2000/svg">
<path d="M1.5 5.5H4M1.5 5.5C1.5 6.69347 1.97411 7.83807 2.81802 8.68198C3.66193 9.52589 4.80653 10 6 10M1.5 5.5C1.5 4.30653 1.97411 3.16193 2.81802 2.31802C3.66193 1.47411 4.80653 1 6 1M4 5.5H8M4 5.5C4 7.985 4.895 10 6 10M4 5.5C4 3.015 4.895 1 6 1M6 10C7.105 10 8 7.985 8 5.5M6 10C7.19347 10 8.33807 9.52589 9.18198 8.68198C10.0259 7.83807 10.5 6.69347 10.5 5.5M6 1C7.105 1 8 3.015 8 5.5M6 1C7.19347 1 8.33807 1.47411 9.18198 2.31802C10.0259 3.16193 10.5 4.30653 10.5 5.5M8 5.5H10.5" stroke="#6B6B6B" stroke-width="1.5" stroke-linecap="round" stroke-linejoin="round"/>
</svg>
