<svg width="73" height="28" viewBox="0 0 73 28" fill="none" xmlns="http://www.w3.org/2000/svg">
<g filter="url(#filter0_d_31_1557)">
<path d="M26.7723 10.5184C26.7723 10.1103 26.7163 9.8102 26.6043 9.61815C26.4922 9.4181 26.2682 9.31808 25.9321 9.31808H25.692V9.07802H26.7723C27.0684 9.07802 27.2884 9.11803 27.4325 9.19805C27.5845 9.27007 27.6925 9.4061 27.7566 9.60615C27.8206 9.8062 27.8526 10.1103 27.8526 10.5184V16.5199H32.1137V17H26.7723V10.5184ZM32.7204 9.55814C31.7201 9.55814 31.22 10.0183 31.22 10.9385H30.9799V10.0383C30.9799 9.3981 31.32 9.07802 32.0002 9.07802H37.5816V9.55814H34.8809V17H33.8006V9.55814H32.7204ZM38.998 10.5184C38.998 10.1103 38.942 9.8102 38.83 9.61815C38.718 9.4181 38.4939 9.31808 38.1578 9.31808H37.9178V9.07802H43.031C43.7112 9.07802 44.0513 9.3981 44.0513 10.0383V10.9385H43.8112C43.8112 10.0183 43.3111 9.55814 42.3109 9.55814H40.0783V12.6789H43.3191V13.159H40.0783V16.5199H42.1788C42.731 16.5199 43.1631 16.4199 43.4751 16.2198C43.7872 16.0198 44.0353 15.6797 44.2193 15.1995L44.4594 15.2596L44.0393 16.3998C43.8953 16.7999 43.5952 17 43.1391 17H38.998V10.5184Z" fill="#19172E"/>
<g filter="url(#filter1_d_31_1557)">
<path d="M63.5898 7.78125H51.5352C50.5492 7.78125 49.75 8.46061 49.75 9.29863V13.7014C49.75 14.5394 50.5492 15.2188 51.5352 15.2188H63.5898C64.5758 15.2188 65.375 14.5394 65.375 13.7014V9.29863C65.375 8.46061 64.5758 7.78125 63.5898 7.78125Z" stroke="#19172E" stroke-width="1.125" stroke-miterlimit="10" stroke-linecap="square"/>
<path d="M57.7187 9.60498H52.0034C51.9171 9.60498 51.8472 9.66444 51.8472 9.73779V13.2616C51.8472 13.335 51.9171 13.3945 52.0034 13.3945H57.7187C57.8049 13.3945 57.8749 13.335 57.8749 13.2616V9.73779C57.8749 9.66444 57.8049 9.60498 57.7187 9.60498Z" fill="#19172E" stroke="#19172E" stroke-width="1.125" stroke-miterlimit="10" stroke-linecap="square"/>
<path d="M67.25 10.2607V12.7397" stroke="#19172E" stroke-width="1.125" stroke-miterlimit="10" stroke-linecap="round"/>
</g>
<g filter="url(#filter2_d_31_1557)">
<path d="M19.1667 6.6665C19.6727 6.6665 20.0833 7.03817 20.0833 7.49567V15.8373C20.0833 16.2957 19.6727 16.6665 19.1667 16.6665C18.6607 16.6665 18.25 16.2948 18.25 15.8373V7.49567C18.25 7.03734 18.6607 6.6665 19.1667 6.6665ZM15.5 9.1665C15.7431 9.1665 15.9763 9.2543 16.1482 9.41058C16.3201 9.56686 16.4167 9.77882 16.4167 9.99984V15.8332C16.4167 16.0542 16.3201 16.2661 16.1482 16.4224C15.9763 16.5787 15.7431 16.6665 15.5 16.6665C15.2569 16.6665 15.0237 16.5787 14.8518 16.4224C14.6799 16.2661 14.5833 16.0542 14.5833 15.8332V9.99984C14.5833 9.77882 14.6799 9.56686 14.8518 9.41058C15.0237 9.2543 15.2569 9.1665 15.5 9.1665ZM11.8333 11.6665C12.3393 11.6665 12.75 12.0373 12.75 12.4948V15.8382C12.75 16.2957 12.3393 16.6665 11.8333 16.6665C11.3273 16.6665 10.9167 16.2957 10.9167 15.8382V12.4948C10.917 12.3857 10.941 12.2778 10.9873 12.1771C11.0335 12.0764 11.1012 11.985 11.1863 11.9081C11.2714 11.8312 11.3724 11.7702 11.4834 11.7288C11.5944 11.6873 11.7133 11.6662 11.8333 11.6665ZM8.16667 14.1665C8.67267 14.1665 9.08333 14.5332 9.08333 14.9865V15.8465C9.08237 15.9551 9.0579 16.0624 9.01132 16.1624C8.96473 16.2623 8.89694 16.353 8.81182 16.4291C8.7267 16.5052 8.62591 16.5654 8.51522 16.6061C8.40452 16.6469 8.28608 16.6674 8.16667 16.6665C7.66067 16.6665 7.25 16.2998 7.25 15.8465V14.9865C7.25096 14.8779 7.27543 14.7706 7.32202 14.6707C7.3686 14.5707 7.43639 14.4801 7.52151 14.4039C7.60664 14.3278 7.70742 14.2676 7.81812 14.2269C7.92881 14.1861 8.04725 14.1656 8.16667 14.1665Z" fill="#19172E"/>
</g>
</g>
<defs>
<filter id="filter0_d_31_1557" x="0.5" y="0" width="73" height="28" filterUnits="userSpaceOnUse" color-interpolation-filters="sRGB">
<feFlood flood-opacity="0" result="BackgroundImageFix"/>
<feColorMatrix in="SourceAlpha" type="matrix" values="0 0 0 0 0 0 0 0 0 0 0 0 0 0 0 0 0 0 127 0" result="hardAlpha"/>
<feOffset dy="4"/>
<feGaussianBlur stdDeviation="2"/>
<feComposite in2="hardAlpha" operator="out"/>
<feColorMatrix type="matrix" values="0 0 0 0 0 0 0 0 0 0 0 0 0 0 0 0 0 0 0.25 0"/>
<feBlend mode="normal" in2="BackgroundImageFix" result="effect1_dropShadow_31_1557"/>
<feBlend mode="normal" in="SourceGraphic" in2="effect1_dropShadow_31_1557" result="shape"/>
</filter>
<filter id="filter1_d_31_1557" x="44.5" y="3" width="28" height="25" filterUnits="userSpaceOnUse" color-interpolation-filters="sRGB">
<feFlood flood-opacity="0" result="BackgroundImageFix"/>
<feColorMatrix in="SourceAlpha" type="matrix" values="0 0 0 0 0 0 0 0 0 0 0 0 0 0 0 0 0 0 127 0" result="hardAlpha"/>
<feOffset dy="4"/>
<feGaussianBlur stdDeviation="2"/>
<feComposite in2="hardAlpha" operator="out"/>
<feColorMatrix type="matrix" values="0 0 0 0 0 0 0 0 0 0 0 0 0 0 0 0 0 0 0.25 0"/>
<feBlend mode="normal" in2="BackgroundImageFix" result="effect1_dropShadow_31_1557"/>
<feBlend mode="normal" in="SourceGraphic" in2="effect1_dropShadow_31_1557" result="shape"/>
</filter>
<filter id="filter2_d_31_1557" x="0.5" y="0" width="30" height="28" filterUnits="userSpaceOnUse" color-interpolation-filters="sRGB">
<feFlood flood-opacity="0" result="BackgroundImageFix"/>
<feColorMatrix in="SourceAlpha" type="matrix" values="0 0 0 0 0 0 0 0 0 0 0 0 0 0 0 0 0 0 127 0" result="hardAlpha"/>
<feOffset dy="4"/>
<feGaussianBlur stdDeviation="2"/>
<feComposite in2="hardAlpha" operator="out"/>
<feColorMatrix type="matrix" values="0 0 0 0 0 0 0 0 0 0 0 0 0 0 0 0 0 0 0.25 0"/>
<feBlend mode="normal" in2="BackgroundImageFix" result="effect1_dropShadow_31_1557"/>
<feBlend mode="normal" in="SourceGraphic" in2="effect1_dropShadow_31_1557" result="shape"/>
</filter>
</defs>
</svg>
