<svg width="24" height="24" viewBox="0 0 24 24" fill="none" xmlns="http://www.w3.org/2000/svg">
<g filter="url(#filter0_d_3_492)">
<path d="M5.25 8.25H6.03375M6.03375 8.25H17.9662M6.03375 8.25C6.04275 8.211 6.0525 8.1735 6.06375 8.13525C6.10391 8.01565 6.1515 7.89867 6.20625 7.785L7.3665 5.175C7.59525 4.65975 7.71 4.401 7.8915 4.212C8.052 4.04475 8.2485 3.91725 8.466 3.8385C8.71275 3.75 8.99475 3.75 9.5595 3.75H14.4405C15.0045 3.75 15.288 3.75 15.534 3.8385C15.7515 3.91725 15.948 4.04475 16.1077 4.212C16.2892 4.401 16.404 4.659 16.6328 5.17425L17.7975 7.794C17.8717 7.96125 17.91 8.04675 17.9363 8.13525C17.9475 8.17275 17.9572 8.211 17.9662 8.25M6.03375 8.25C6.02435 8.29315 6.01685 8.33669 6.01125 8.3805C6 8.475 6 8.5695 6 8.76V12.75M17.9662 8.25H18.75M17.9662 8.25C17.976 8.2935 17.9827 8.337 17.988 8.3805C18 8.4735 18 8.568 18 8.7555V12.75M6 12.75H9M6 12.75V13.5C6 13.8978 6.15804 14.2794 6.43934 14.5607C6.72064 14.842 7.10218 15 7.5 15C7.89782 15 8.27936 14.842 8.56066 14.5607C8.84196 14.2794 9 13.8978 9 13.5V12.75M18 12.75H15M18 12.75V13.5C18 13.8978 17.842 14.2794 17.5607 14.5607C17.2794 14.842 16.8978 15 16.5 15C16.1022 15 15.7206 14.842 15.4393 14.5607C15.158 14.2794 15 13.8978 15 13.5V12.75M15 12.75H9" stroke="white" stroke-width="1.5" stroke-linecap="round" stroke-linejoin="round"/>
</g>
<defs>
<filter id="filter0_d_3_492" x="-1" y="0" width="26" height="26" filterUnits="userSpaceOnUse" color-interpolation-filters="sRGB">
<feFlood flood-opacity="0" result="BackgroundImageFix"/>
<feColorMatrix in="SourceAlpha" type="matrix" values="0 0 0 0 0 0 0 0 0 0 0 0 0 0 0 0 0 0 127 0" result="hardAlpha"/>
<feOffset dy="4"/>
<feGaussianBlur stdDeviation="2"/>
<feComposite in2="hardAlpha" operator="out"/>
<feColorMatrix type="matrix" values="0 0 0 0 0 0 0 0 0 0 0 0 0 0 0 0 0 0 0.25 0"/>
<feBlend mode="normal" in2="BackgroundImageFix" result="effect1_dropShadow_3_492"/>
<feBlend mode="normal" in="SourceGraphic" in2="effect1_dropShadow_3_492" result="shape"/>
</filter>
</defs>
</svg>
