<svg width="24" height="25" viewBox="0 0 24 25" fill="none" xmlns="http://www.w3.org/2000/svg">
<g filter="url(#filter0_d_3_524)">
<path d="M15.9127 14.499C15.4208 13.948 14.8179 13.5073 14.1435 13.2059C13.4692 12.9044 12.7387 12.7491 12 12.75C10.4453 12.75 9.04875 13.425 8.08725 14.499M12 15.75C11.1136 15.75 10.2358 15.5754 9.41689 15.2362C8.59794 14.897 7.85382 14.3998 7.22703 13.773C6.60023 13.1462 6.10303 12.4021 5.76381 11.5831C5.42459 10.7642 5.25 9.88642 5.25 9C5.25 8.11358 5.42459 7.23583 5.76381 6.41689C6.10303 5.59794 6.60023 4.85382 7.22703 4.22703C7.85382 3.60023 8.59794 3.10303 9.41689 2.76381C10.2358 2.42459 11.1136 2.25 12 2.25C13.7902 2.25 15.5071 2.96116 16.773 4.22703C18.0388 5.4929 18.75 7.20979 18.75 9C18.75 10.7902 18.0388 12.5071 16.773 13.773C15.5071 15.0388 13.7902 15.75 12 15.75ZM12 10.5C11.7045 10.5 11.4119 10.4418 11.139 10.3287C10.866 10.2157 10.6179 10.0499 10.409 9.84099C10.2001 9.63206 10.0343 9.38402 9.92127 9.11104C9.8082 8.83806 9.75 8.54547 9.75 8.25C9.75 7.95453 9.8082 7.66194 9.92127 7.38896C10.0343 7.11598 10.2001 6.86794 10.409 6.65901C10.6179 6.45008 10.866 6.28434 11.139 6.17127C11.4119 6.0582 11.7045 6 12 6C12.5967 6 13.169 6.23705 13.591 6.65901C14.0129 7.08097 14.25 7.65326 14.25 8.25C14.25 8.84674 14.0129 9.41903 13.591 9.84099C13.169 10.2629 12.5967 10.5 12 10.5Z" stroke="white" stroke-width="1.5" stroke-linecap="round" stroke-linejoin="round"/>
</g>
<defs>
<filter id="filter0_d_3_524" x="-1" y="0" width="26" height="26" filterUnits="userSpaceOnUse" color-interpolation-filters="sRGB">
<feFlood flood-opacity="0" result="BackgroundImageFix"/>
<feColorMatrix in="SourceAlpha" type="matrix" values="0 0 0 0 0 0 0 0 0 0 0 0 0 0 0 0 0 0 127 0" result="hardAlpha"/>
<feOffset dy="4"/>
<feGaussianBlur stdDeviation="2"/>
<feComposite in2="hardAlpha" operator="out"/>
<feColorMatrix type="matrix" values="0 0 0 0 0 0 0 0 0 0 0 0 0 0 0 0 0 0 0.25 0"/>
<feBlend mode="normal" in2="BackgroundImageFix" result="effect1_dropShadow_3_524"/>
<feBlend mode="normal" in="SourceGraphic" in2="effect1_dropShadow_3_524" result="shape"/>
</filter>
</defs>
</svg>
