<svg width="20" height="24" viewBox="0 0 20 24" fill="none" xmlns="http://www.w3.org/2000/svg">
<g filter="url(#filter0_d_3_539)">
<path d="M5.5 5.4V12.5137C5.5 13.5345 5.5 14.0452 5.653 14.3572C5.79142 14.6396 6.01504 14.8712 6.29228 15.0195C6.56951 15.1678 6.88634 15.2253 7.198 15.1838C7.543 15.1388 7.9675 14.8553 8.8165 14.289L8.81875 14.2875C9.1555 14.0625 9.3235 13.9507 9.49975 13.8885C9.8232 13.7742 10.1761 13.7742 10.4995 13.8885C10.6758 13.9507 10.8445 14.0633 11.1827 14.289C12.0325 14.8553 12.4578 15.138 12.8028 15.1838C13.1143 15.2251 13.431 15.1676 13.708 15.0193C13.9851 14.871 14.2086 14.6394 14.347 14.3572C14.5 14.0452 14.5 13.5345 14.5 12.5137V5.39775C14.5 4.55925 14.5 4.13925 14.3365 3.819C14.1925 3.53669 13.9627 3.30722 13.6802 3.1635C13.36 3 12.94 3 12.1 3H7.9C7.06 3 6.64 3 6.319 3.1635C6.03674 3.30727 5.80727 3.53674 5.6635 3.819C5.5 4.14 5.5 4.56 5.5 5.4Z" stroke="white" stroke-width="1.5" stroke-linecap="round" stroke-linejoin="round"/>
</g>
<defs>
<filter id="filter0_d_3_539" x="-3" y="0" width="26" height="26" filterUnits="userSpaceOnUse" color-interpolation-filters="sRGB">
<feFlood flood-opacity="0" result="BackgroundImageFix"/>
<feColorMatrix in="SourceAlpha" type="matrix" values="0 0 0 0 0 0 0 0 0 0 0 0 0 0 0 0 0 0 127 0" result="hardAlpha"/>
<feOffset dy="4"/>
<feGaussianBlur stdDeviation="2"/>
<feComposite in2="hardAlpha" operator="out"/>
<feColorMatrix type="matrix" values="0 0 0 0 0 0 0 0 0 0 0 0 0 0 0 0 0 0 0.25 0"/>
<feBlend mode="normal" in2="BackgroundImageFix" result="effect1_dropShadow_3_539"/>
<feBlend mode="normal" in="SourceGraphic" in2="effect1_dropShadow_3_539" result="shape"/>
</filter>
</defs>
</svg>
