<svg xmlns="http://www.w3.org/2000/svg" version="1.1" viewBox="-5.0 -10.0 110.0 135.0">
 <path d="m50 93.75c24.125 0 43.75-19.625 43.75-43.75s-19.625-43.75-43.75-43.75-43.75 19.625-43.75 43.75 19.625 43.75 43.75 43.75zm-26.562-46.906c0-4.9688 4.0312-8.9688 9-8.9688h5.4375v-5.4375c0-4.9688 4.0312-9 8.9688-9h6.3125c4.9375 0 8.9688 4.0312 8.9688 9v5.4375h5.4375c4.9688 0 9 4 9 8.9688v6.3125c0 4.9688-4.0312 8.9688-9 8.9688h-5.4375v5.4375c0 4.9688-4.0312 9-8.9688 9h-6.3125c-4.9375 0-8.9688-4.0312-8.9688-9v-5.4375h-5.4375c-4.9688 0-9-4-9-8.9688z"/>
 <path d="m32.438 55.875h8.5625c1.7188 0 3.125 1.4062 3.125 3.125v8.5625c0 1.5312 1.2188 2.75 2.7188 2.75h6.3125c1.5 0 2.7188-1.2188 2.7188-2.75v-8.5625c0-1.7188 1.4062-3.125 3.125-3.125h8.5625c1.5312 0 2.75-1.2188 2.75-2.7188v-6.3125c0-1.5-1.2188-2.7188-2.75-2.7188h-8.5625c-1.7188 0-3.125-1.4062-3.125-3.125v-8.5625c0-1.5312-1.2188-2.75-2.7188-2.75h-6.3125c-1.5 0-2.7188 1.2188-2.7188 2.75v8.5625c0 1.7188-1.4062 3.125-3.125 3.125h-8.5625c-1.5312 0-2.75 1.2188-2.75 2.7188v6.3125c0 1.5 1.2188 2.7188 2.75 2.7188z"/></svg>