<svg xmlns="http://www.w3.org/2000/svg" xmlns:xlink="http://www.w3.org/1999/xlink" xmlns:serif="http://www.serif.com/" viewBox="0 0 32 40" version="1.1" xml:space="preserve" style="" x="0px" y="0px" fill-rule="evenodd" clip-rule="evenodd" stroke-linejoin="round" stroke-miterlimit="2"><g transform="matrix(1,0,0,1,-222,-74)"><g transform="matrix(1,0,0,1,74,-184.99)"><path d="M164,260C155.721,260 149,266.721 149,275C149,283.279 155.721,290 164,290C172.279,290 179,283.279 179,275C179,266.721 172.279,260 164,260ZM156.597,273.312C156.617,273.329 156.639,273.345 156.661,273.361C156.951,273.574 157.271,273.751 157.612,273.882L159.676,275L157.612,276.118C157.271,276.249 156.951,276.426 156.661,276.639C156.639,276.655 156.617,276.671 156.597,276.688C155.626,277.434 155,278.606 155,279.923C155,282.173 156.827,284 159.077,284C161.327,284 163.154,282.173 163.154,279.923C163.154,278.453 162.374,277.163 161.205,276.446L161.775,276.137L171.524,281.418C172.009,281.681 172.616,281.5 172.879,281.015C173.142,280.529 172.962,279.922 172.476,279.659L163.875,275L172.476,270.341C172.962,270.078 173.142,269.471 172.879,268.985C172.616,268.5 172.009,268.319 171.524,268.582L161.775,273.863L161.205,273.554C162.374,272.837 163.154,271.547 163.154,270.077C163.154,267.827 161.327,266 159.077,266C156.827,266 155,267.827 155,270.077C155,271.394 155.626,272.566 156.597,273.312ZM157.78,278.301L158.431,277.949C158.634,277.882 158.851,277.846 159.077,277.846C160.223,277.846 161.154,278.777 161.154,279.923C161.154,281.069 160.223,282 159.077,282C157.931,282 157,281.069 157,279.923C157,279.267 157.305,278.682 157.78,278.301ZM158.431,272.051L157.78,271.699C157.305,271.318 157,270.733 157,270.077C157,268.931 157.931,268 159.077,268C160.223,268 161.154,268.931 161.154,270.077C161.154,271.223 160.223,272.154 159.077,272.154C158.851,272.154 158.634,272.118 158.431,272.051Z"/></g></g><text x="0" y="47" fill="#000000" font-size="5px" font-weight="bold" font-family="'Helvetica Neue', Helvetica, Arial-Unicode, Arial, Sans-serif"></text><text x="0" y="52" fill="#000000" font-size="5px" font-weight="bold" font-family="'Helvetica Neue', Helvetica, Arial-Unicode, Arial, Sans-serif"></text></svg>