<svg xmlns:dc="http://purl.org/dc/elements/1.1/" xmlns:cc="http://creativecommons.org/ns#" xmlns:rdf="http://www.w3.org/1999/02/22-rdf-syntax-ns#" xmlns:svg="http://www.w3.org/2000/svg" xmlns="http://www.w3.org/2000/svg" xmlns:sodipodi="http://sodipodi.sourceforge.net/DTD/sodipodi-0.dtd" xmlns:inkscape="http://www.inkscape.org/namespaces/inkscape" viewBox="0 0 80.000001 100.00000125" version="1.1" x="0px" y="0px"><g transform="translate(0,-972.3622)"><path style="color:#000000;font-style:normal;font-variant:normal;font-weight:normal;font-stretch:normal;font-size:medium;line-height:normal;font-family:sans-serif;text-indent:0;text-align:start;text-decoration:none;text-decoration-line:none;text-decoration-style:solid;text-decoration-color:#000000;letter-spacing:normal;word-spacing:normal;text-transform:none;direction:ltr;block-progression:tb;writing-mode:lr-tb;baseline-shift:baseline;text-anchor:start;white-space:normal;clip-rule:nonzero;display:inline;overflow:visible;visibility:visible;opacity:1;isolation:auto;mix-blend-mode:normal;color-interpolation:sRGB;color-interpolation-filters:linearRGB;solid-color:#000000;solid-opacity:1;fill:#000000;fill-opacity:1;fill-rule:nonzero;stroke:none;stroke-width:5;stroke-linecap:round;stroke-linejoin:round;stroke-miterlimit:4;stroke-dasharray:none;stroke-dashoffset:0;stroke-opacity:1;color-rendering:auto;image-rendering:auto;shape-rendering:auto;text-rendering:auto;enable-background:accumulate" d="M 40 0 C 17.938222 0 0 17.9382 0 40 C 0 62.0618 17.938222 80 40 80 C 62.061778 80 80 62.0618 80 40 C 80 17.9382 62.061778 0 40 0 z M 16 21.503906 L 63.931641 21.503906 A 2.500229 2.500229 0 1 1 63.931641 26.503906 L 16 26.503906 A 2.500229 2.500229 0 1 1 16 21.503906 z M 16 29.503906 L 23.988281 29.503906 A 2.500229 2.500229 0 1 1 23.988281 34.503906 L 16 34.503906 A 2.500229 2.500229 0 1 1 16 29.503906 z M 55.943359 29.503906 L 63.931641 29.503906 A 2.500229 2.500229 0 1 1 63.931641 34.503906 L 55.943359 34.503906 A 2.500229 2.500229 0 1 1 55.943359 29.503906 z M 31.888672 29.505859 A 2.500229 2.500229 0 0 1 33.097656 29.767578 L 49.074219 37.767578 A 2.500229 2.500229 0 0 1 49.074219 42.238281 L 33.097656 50.238281 A 2.500229 2.500229 0 0 1 29.476562 48.001953 L 29.476562 32.003906 A 2.500229 2.500229 0 0 1 31.888672 29.505859 z M 34.476562 36.052734 L 34.476562 43.953125 L 42.371094 40.001953 L 34.476562 36.052734 z M 16 45.501953 L 23.988281 45.501953 A 2.500229 2.500229 0 1 1 23.988281 50.501953 L 16 50.501953 A 2.500229 2.500229 0 1 1 16 45.501953 z M 55.943359 45.501953 L 63.931641 45.501953 A 2.500229 2.500229 0 1 1 63.931641 50.501953 L 55.943359 50.501953 A 2.500229 2.500229 0 1 1 55.943359 45.501953 z M 16 53.5 L 63.931641 53.5 A 2.500229 2.500229 0 1 1 63.931641 58.5 L 16 58.5 A 2.500229 2.500229 0 1 1 16 53.5 z " transform="translate(0,972.3622)"/></g></svg>