<svg width="198" height="118" viewBox="0 0 198 118" fill="none" xmlns="http://www.w3.org/2000/svg">
<path fill-rule="evenodd" clip-rule="evenodd" d="M99 0C110.598 0 120 9.40202 120 21C120 22.4157 119.86 23.7986 119.593 25.1358C117.739 39.1032 99.1104 55 99.1104 55C99.1104 55 83.2569 41.4717 79.3446 28.4096C78.4755 26.1054 78 23.6083 78 21C78 9.40202 87.402 0 99 0Z" fill="#FF7710"/>
<path d="M107 21C107 16.5817 103.418 13 99 13C94.5817 13 91 16.5817 91 21C91 25.4183 94.5817 29 99 29C103.418 29 107 25.4183 107 21Z" fill="#171F31"/>
<path d="M7.53729 76.5246V102.463H22.7382V106H3.57916V76.5246H7.53729ZM27.6385 79.3458C26.8806 79.3458 26.2489 79.1072 25.7436 78.6299C25.2383 78.1527 24.9857 77.5492 24.9857 76.8193C24.9857 76.0894 25.2383 75.4859 25.7436 75.0087C26.2489 74.5034 26.8806 74.2507 27.6385 74.2507C28.3964 74.2507 29.014 74.4893 29.4912 74.9666C29.9965 75.4438 30.2492 76.0333 30.2492 76.7351C30.2492 77.465 29.9965 78.0825 29.4912 78.5878C29.014 79.0931 28.3964 79.3458 27.6385 79.3458ZM29.5754 83.725V106H25.7015V83.725H29.5754ZM45.0853 106.211C42.9799 106.211 41.085 105.733 39.4007 104.779C37.7164 103.796 36.397 102.449 35.4426 100.737C34.4881 98.9961 34.0109 97.031 34.0109 94.8414C34.0109 92.6518 34.4881 90.7008 35.4426 88.9885C36.397 87.248 37.7164 85.9006 39.4007 84.9461C41.085 83.9636 42.9799 83.4723 45.0853 83.4723C47.1906 83.4723 49.0715 83.9636 50.7277 84.9461C52.412 85.9006 53.7314 87.248 54.6858 88.9885C55.6403 90.7008 56.1175 92.6518 56.1175 94.8414C56.1175 97.031 55.6403 98.9961 54.6858 100.737C53.7314 102.449 52.412 103.796 50.7277 104.779C49.0715 105.733 47.1906 106.211 45.0853 106.211ZM45.0853 102.8C46.4327 102.8 47.6538 102.477 48.7486 101.831C49.8434 101.158 50.6996 100.217 51.3172 99.0101C51.9348 97.803 52.2436 96.4135 52.2436 94.8414C52.2436 93.2694 51.9348 91.8799 51.3172 90.6728C50.6996 89.4657 49.8434 88.5393 48.7486 87.8937C47.6538 87.2199 46.4327 86.8831 45.0853 86.8831C43.7378 86.8831 42.5167 87.2199 41.4219 87.8937C40.3271 88.5393 39.4709 89.4657 38.8533 90.6728C38.2357 91.8799 37.9269 93.2694 37.9269 94.8414C37.9269 96.4135 38.2357 97.803 38.8533 99.0101C39.4709 100.217 40.3271 101.158 41.4219 101.831C42.5167 102.477 43.7378 102.8 45.0853 102.8ZM71.6854 83.4723C74.3241 83.4723 76.4295 84.2864 78.0015 85.9146C79.5736 87.5428 80.3596 89.9289 80.3596 93.0729V106H76.5278V93.6203C76.5278 91.4307 76.0365 89.7885 75.054 88.6937C74.0715 87.5708 72.6538 87.0094 70.8011 87.0094C68.7238 87.0094 67.0816 87.6691 65.8745 88.9885C64.6674 90.3078 64.0639 92.1325 64.0639 94.4625V106H60.2321V83.725H63.8954V87.5989C64.6534 86.3076 65.7061 85.297 67.0535 84.5671C68.401 83.8373 69.9449 83.4723 71.6854 83.4723ZM105.46 76.5246C109.082 76.5246 111.931 77.4369 114.008 79.2616C116.114 81.0582 117.166 83.5566 117.166 86.7567C117.166 89.9569 116.114 92.4694 114.008 94.294C111.931 96.0906 109.082 96.9889 105.46 96.9889H98.5126V106H94.5545V76.5246H105.46ZM105.334 93.494C107.889 93.494 109.826 92.9045 111.145 91.7255C112.492 90.5464 113.166 88.8902 113.166 86.7567C113.166 84.5952 112.492 82.939 111.145 81.788C109.826 80.609 107.889 80.0195 105.334 80.0195H98.5126V93.494H105.334ZM125.613 74.756V106H121.739V74.756H125.613ZM139.818 83.4723C142.737 83.4723 144.969 84.2303 146.513 85.7462C148.085 87.234 148.871 89.4657 148.871 92.4413V106H145.25V102.463C144.632 103.67 143.72 104.596 142.513 105.242C141.306 105.888 139.846 106.211 138.133 106.211C135.719 106.211 133.824 105.607 132.449 104.4C131.073 103.193 130.386 101.621 130.386 99.6838C130.386 97.7469 131.059 96.2029 132.407 95.052C133.782 93.873 135.916 93.2835 138.807 93.2835H145.039C145.039 92.4413 144.955 91.7114 144.786 91.0938C144.393 88.2024 142.597 86.7567 139.397 86.7567C138.105 86.7567 136.856 86.9813 135.649 87.4305C134.442 87.8796 133.417 88.4972 132.575 89.2832L131.059 86.462C132.154 85.5075 133.473 84.7777 135.017 84.2724C136.561 83.739 138.161 83.4723 139.818 83.4723ZM138.976 103.347C140.463 103.347 141.713 102.996 142.723 102.295C143.762 101.593 144.534 100.568 145.039 99.2206V95.852H139.144C135.803 95.852 134.133 97.0732 134.133 99.5154C134.133 100.694 134.554 101.635 135.396 102.337C136.267 103.01 137.46 103.347 138.976 103.347ZM164.306 106.211C162.172 106.211 160.249 105.733 158.537 104.779C156.853 103.796 155.519 102.449 154.537 100.737C153.582 98.9961 153.105 97.031 153.105 94.8414C153.105 92.6518 153.582 90.7008 154.537 88.9885C155.519 87.248 156.853 85.9006 158.537 84.9461C160.249 83.9636 162.172 83.4723 164.306 83.4723C166.271 83.4723 167.997 83.8794 169.485 84.6935C171.001 85.5075 172.18 86.7006 173.022 88.2726L170.033 90.0833C169.387 89.0165 168.559 88.2165 167.548 87.6831C166.566 87.1498 165.485 86.8831 164.306 86.8831C162.93 86.8831 161.681 87.2199 160.558 87.8937C159.463 88.5393 158.593 89.4657 157.948 90.6728C157.33 91.8799 157.021 93.2694 157.021 94.8414C157.021 96.4415 157.33 97.8451 157.948 99.0522C158.593 100.259 159.463 101.186 160.558 101.831C161.681 102.477 162.93 102.8 164.306 102.8C165.513 102.8 166.608 102.547 167.59 102.042C168.573 101.509 169.387 100.694 170.033 99.5996L173.022 101.452C172.18 102.996 171.001 104.175 169.485 104.989C167.969 105.803 166.243 106.211 164.306 106.211ZM196.184 95.8941H178.962C179.131 97.9995 179.917 99.6979 181.32 100.989C182.724 102.252 184.492 102.884 186.626 102.884C189.237 102.884 191.286 101.972 192.774 100.147L194.879 102.547C193.897 103.754 192.689 104.667 191.258 105.284C189.854 105.902 188.282 106.211 186.542 106.211C184.324 106.211 182.345 105.733 180.605 104.779C178.864 103.796 177.503 102.449 176.52 100.737C175.566 98.9961 175.088 97.031 175.088 94.8414C175.088 92.6518 175.552 90.7008 176.478 88.9885C177.404 87.248 178.682 85.9006 180.31 84.9461C181.938 83.9636 183.749 83.4723 185.742 83.4723C187.707 83.4723 189.489 83.9496 191.089 84.904C192.689 85.8304 193.939 87.1498 194.837 88.8621C195.763 90.5745 196.227 92.5536 196.227 94.7993L196.184 95.8941ZM185.784 86.6304C183.931 86.6304 182.373 87.248 181.11 88.4832C179.847 89.7183 179.117 91.3325 178.92 93.3256H192.647C192.423 91.3605 191.679 89.7604 190.416 88.5253C189.18 87.262 187.637 86.6304 185.784 86.6304Z" fill="#FF7710"/>
</svg>
