<svg width="53" height="27" viewBox="0 0 53 27" fill="none" xmlns="http://www.w3.org/2000/svg">
<g filter="url(#filter0_d_31_964)">
<path d="M8.256 18.32C7.488 18.32 6.81067 18.176 6.224 17.888C5.648 17.5893 5.12 17.1627 4.64 16.608L4.896 16.32C5.312 16.7787 5.76 17.12 6.24 17.344C6.72 17.568 7.25867 17.68 7.856 17.68C8.54933 17.68 9.12 17.4613 9.568 17.024C10.0267 16.576 10.256 15.9147 10.256 15.04C10.256 14.5067 10.1547 14.0533 9.952 13.68C9.74933 13.3067 9.488 13.0293 9.168 12.848C8.848 12.656 8.51733 12.56 8.176 12.56C7.728 12.56 7.39733 12.576 7.184 12.608C6.97067 12.64 6.66133 12.704 6.256 12.8L5.84 12.128L10.176 8.08H7.216C6.56533 8.08 6.06933 8.21867 5.728 8.496C5.38667 8.77333 5.216 9.19467 5.216 9.76H4.896V8.72C4.896 7.86667 5.34933 7.44 6.256 7.44H11.344V8.08L7.056 12.08C7.472 11.9733 7.952 11.92 8.496 11.92C8.92267 11.92 9.392 12.0107 9.904 12.192C10.416 12.3627 10.8693 12.6827 11.264 13.152C11.6587 13.6107 11.856 14.24 11.856 15.04C11.856 15.8933 11.6533 16.5653 11.248 17.056C10.8533 17.5467 10.384 17.8773 9.84 18.048C9.296 18.2293 8.768 18.32 8.256 18.32ZM14.4204 12.352C14.1857 12.352 13.983 12.272 13.8124 12.112C13.6417 11.9413 13.5564 11.7333 13.5564 11.488C13.5564 11.2533 13.6417 11.0507 13.8124 10.88C13.983 10.7093 14.1857 10.624 14.4204 10.624C14.6657 10.624 14.8684 10.7093 15.0284 10.88C15.199 11.0507 15.2844 11.2533 15.2844 11.488C15.2844 11.7333 15.199 11.9413 15.0284 12.112C14.8684 12.272 14.6657 12.352 14.4204 12.352ZM14.4044 18.224C14.1697 18.224 13.967 18.1387 13.7964 17.968C13.6257 17.7973 13.5404 17.5893 13.5404 17.344C13.5404 17.1093 13.6257 16.9067 13.7964 16.736C13.967 16.5653 14.1697 16.48 14.4044 16.48C14.6497 16.48 14.8577 16.5653 15.0284 16.736C15.199 16.9067 15.2844 17.1093 15.2844 17.344C15.2844 17.5893 15.199 17.7973 15.0284 17.968C14.8577 18.1387 14.6497 18.224 14.4044 18.224ZM16.9998 17.2C17.5651 16.656 17.9971 16.2453 18.2958 15.968C19.3518 14.9547 20.1251 14.1813 20.6158 13.648C21.1064 13.1147 21.4904 12.5653 21.7678 12C22.0558 11.4347 22.1998 10.8213 22.1998 10.16C22.1998 9.392 21.9971 8.8 21.5918 8.384C21.1971 7.968 20.7064 7.76 20.1198 7.76C19.4691 7.76 18.9038 7.99467 18.4238 8.464C17.9544 8.93333 17.6398 9.60533 17.4798 10.48H17.1598C17.1598 9.94667 17.1811 9.52533 17.2238 9.216C17.2664 8.896 17.3731 8.624 17.5438 8.4C17.8424 8.03733 18.2691 7.73333 18.8238 7.488C19.3891 7.24267 19.9811 7.12 20.5998 7.12C21.4424 7.12 22.1838 7.344 22.8238 7.792C23.4744 8.22933 23.7998 9.01867 23.7998 10.16C23.7998 10.832 23.6398 11.4613 23.3198 12.048C23.0104 12.6347 22.6051 13.184 22.1038 13.696C21.6131 14.1973 20.9144 14.848 20.0078 15.648C19.0691 16.4907 18.4398 17.0613 18.1198 17.36H21.7198C22.3704 17.36 22.8664 17.2213 23.2078 16.944C23.5491 16.6667 23.7198 16.2453 23.7198 15.68H24.0398V16.72C24.0398 17.5733 23.5864 18 22.6798 18H16.9998V17.2ZM29.2601 18.32C28.1935 18.32 27.3135 18.096 26.6201 17.648C25.9268 17.1893 25.5801 16.5067 25.5801 15.6C25.5801 14.8747 25.8095 14.288 26.2681 13.84C26.7375 13.3813 27.3615 12.9813 28.1401 12.64C27.4468 12.2347 26.9135 11.8293 26.5401 11.424C26.1668 11.008 25.9801 10.48 25.9801 9.84C25.9801 8.86933 26.2788 8.176 26.8761 7.76C27.4841 7.33333 28.2788 7.12 29.2601 7.12C30.2308 7.12 31.0201 7.32267 31.6281 7.728C32.2361 8.13333 32.5401 8.784 32.5401 9.68C32.5401 10.2667 32.3535 10.784 31.9801 11.232C31.6068 11.6693 31.1268 12.032 30.5401 12.32C31.0521 12.6293 31.4681 12.912 31.7881 13.168C32.1188 13.424 32.3908 13.7387 32.6041 14.112C32.8281 14.4853 32.9401 14.928 32.9401 15.44C32.9401 16.4213 32.5935 17.1467 31.9001 17.616C31.2175 18.0853 30.3375 18.32 29.2601 18.32ZM29.8201 11.92C30.2041 11.6427 30.4975 11.3387 30.7001 11.008C30.9135 10.6667 31.0201 10.224 31.0201 9.68C31.0201 8.98667 30.8495 8.496 30.5081 8.208C30.1668 7.90933 29.7508 7.76 29.2601 7.76C28.7801 7.76 28.3641 7.89867 28.0121 8.176C27.6708 8.45333 27.5001 8.90133 27.5001 9.52C27.5001 10.3947 28.2735 11.1947 29.8201 11.92ZM29.2601 17.68C29.8575 17.68 30.3641 17.5147 30.7801 17.184C31.2068 16.8427 31.4201 16.368 31.4201 15.76C31.4201 15.3333 31.3081 14.9547 31.0841 14.624C30.8601 14.2933 30.5721 14.0107 30.2201 13.776C29.8788 13.5307 29.4255 13.2587 28.8601 12.96C28.3055 13.2373 27.8735 13.5733 27.5641 13.968C27.2548 14.352 27.1001 14.896 27.1001 15.6C27.1001 16.2827 27.3081 16.8 27.7241 17.152C28.1401 17.504 28.6521 17.68 29.2601 17.68Z" fill="white"/>
<g filter="url(#filter1_d_31_964)">
<path d="M47.2026 7.70371L43.73 17.0837C43.5106 17.6764 42.8789 17.9809 42.3195 17.7633C42.1809 17.7084 42.0553 17.6255 41.9504 17.5196C41.8455 17.4138 41.7636 17.2875 41.7099 17.1485L40.6091 14.366C40.4023 13.8318 39.9922 13.4014 39.4687 13.169L36.8192 12.0134C36.268 11.7725 36.0171 11.1045 36.2581 10.5212C36.315 10.3804 36.3994 10.2522 36.5062 10.1442C36.6131 10.0361 36.7403 9.95035 36.8805 9.89179L45.8148 6.24596C46.3789 6.01554 47.0048 6.30487 47.2119 6.89287C47.3035 7.15304 47.2994 7.44121 47.2026 7.70371Z" fill="white"/>
</g>
</g>
<defs>
<filter id="filter0_d_31_964" x="0" y="0" width="53" height="32" filterUnits="userSpaceOnUse" color-interpolation-filters="sRGB">
<feFlood flood-opacity="0" result="BackgroundImageFix"/>
<feColorMatrix in="SourceAlpha" type="matrix" values="0 0 0 0 0 0 0 0 0 0 0 0 0 0 0 0 0 0 127 0" result="hardAlpha"/>
<feOffset dy="4"/>
<feGaussianBlur stdDeviation="2"/>
<feComposite in2="hardAlpha" operator="out"/>
<feColorMatrix type="matrix" values="0 0 0 0 0 0 0 0 0 0 0 0 0 0 0 0 0 0 0.25 0"/>
<feBlend mode="normal" in2="BackgroundImageFix" result="effect1_dropShadow_31_964"/>
<feBlend mode="normal" in="SourceGraphic" in2="effect1_dropShadow_31_964" result="shape"/>
</filter>
<filter id="filter1_d_31_964" x="31" y="5" width="22" height="22" filterUnits="userSpaceOnUse" color-interpolation-filters="sRGB">
<feFlood flood-opacity="0" result="BackgroundImageFix"/>
<feColorMatrix in="SourceAlpha" type="matrix" values="0 0 0 0 0 0 0 0 0 0 0 0 0 0 0 0 0 0 127 0" result="hardAlpha"/>
<feOffset dy="4"/>
<feGaussianBlur stdDeviation="2"/>
<feComposite in2="hardAlpha" operator="out"/>
<feColorMatrix type="matrix" values="0 0 0 0 0 0 0 0 0 0 0 0 0 0 0 0 0 0 0.25 0"/>
<feBlend mode="normal" in2="BackgroundImageFix" result="effect1_dropShadow_31_964"/>
<feBlend mode="normal" in="SourceGraphic" in2="effect1_dropShadow_31_964" result="shape"/>
</filter>
</defs>
</svg>
